<svg width="40" height="50" viewBox="0 0 150 251" fill="none" xmlns="http://www.w3.org/2000/svg">
<path d="M75.0929 1L107.457 40.1777C131.507 100.998 135.85 136.41 109.16 220.736H41.0254C8.22749 120.46 24.2882 41.6297 75.0929 1Z" fill="url(#paint0_linear_78_33)"/>
<circle cx="75.0933" cy="147.49" r="21.1976" stroke="white" stroke-width="5.2994"/>
<path d="M39.3222 48.6946H110.864" stroke="white" stroke-width="5.11013"/>
<path fill-rule="evenodd" clip-rule="evenodd" d="M22.7904 140.677C-0.510151 178.575 -5.11017 200.313 22.7904 241.176C21.2886 219.06 23.1622 209.368 33.0107 198.592L22.7904 140.677ZM127.898 140.677C151.198 178.575 155.799 200.313 127.898 241.176C129.4 219.06 127.526 209.368 117.678 198.592L127.898 140.677Z" fill="url(#paint1_linear_78_33)"/>
<path d="M22.7904 241.176L20.6803 242.617L25.9758 250.373L25.3396 241.003L22.7904 241.176ZM22.7904 140.677L25.3066 140.233L24.1374 133.608L20.6138 139.339L22.7904 140.677ZM33.0107 198.592L34.8968 200.315L35.7455 199.387L35.5269 198.148L33.0107 198.592ZM127.898 241.176L125.349 241.003L124.713 250.373L130.008 242.617L127.898 241.176ZM127.898 140.677L130.075 139.339L126.551 133.608L125.382 140.233L127.898 140.677ZM117.678 198.592L115.161 198.148L114.943 199.387L115.792 200.315L117.678 198.592ZM76.981 0.981516C76.03 -0.0610566 74.414 -0.135329 73.3714 0.815624C72.3288 1.76658 72.2545 3.38265 73.2055 4.42522L76.981 0.981516ZM80.8829 9.00509L79.0046 10.7372L79.0046 10.7372L80.8829 9.00509ZM125.343 140.699C125.355 142.11 126.509 143.244 127.92 143.232C129.332 143.219 130.465 142.065 130.453 140.654L125.343 140.699ZM117.678 198.592L120.115 199.357L121.158 196.037H117.678V198.592ZM98.6424 219.901C97.2409 220.066 96.2383 221.336 96.4029 222.737C96.5675 224.139 97.8371 225.141 99.2386 224.977L98.6424 219.901ZM76.981 4.42523C77.9319 3.38265 77.8577 1.76658 76.8151 0.815627C75.7725 -0.135328 74.1564 -0.0610583 73.2055 0.981513L76.981 4.42523ZM69.7794 8.49428L67.8995 6.76386L67.8995 6.76386L69.7794 8.49428ZM20.2354 140.654C20.223 142.065 21.3568 143.219 22.7679 143.232C24.179 143.244 25.3329 142.11 25.3454 140.699L20.2354 140.654ZM33.0107 198.592V196.037H29.5304L30.5729 199.357L33.0107 198.592ZM51.7478 222.439L51.4497 224.977L51.5982 224.994H51.7478V222.439ZM98.9405 224.994C100.352 224.994 101.496 223.85 101.496 222.439C101.496 221.028 100.352 219.884 98.9405 219.884V224.994ZM24.9005 239.735C11.0856 219.502 5.59793 204.402 6.14324 189.911C6.69153 175.341 13.3441 160.92 24.967 142.015L20.6138 139.339C8.93619 158.332 1.63843 173.729 1.03672 189.719C0.432024 205.788 6.5946 221.987 20.6803 242.617L24.9005 239.735ZM31.1246 196.868C25.9604 202.519 22.783 208.018 21.1549 215.056C19.5534 221.978 19.4874 230.247 20.2412 241.349L25.3396 241.003C24.5917 229.989 24.7116 222.354 26.1335 216.207C27.5289 210.176 30.2125 205.441 34.8968 200.315L31.1246 196.868ZM20.2742 141.121L30.4945 199.036L35.5269 198.148L25.3066 140.233L20.2742 141.121ZM130.008 242.617C144.094 221.987 150.256 205.788 149.652 189.719C149.05 173.729 141.752 158.332 130.075 139.339L125.721 142.015C137.344 160.92 143.997 175.341 144.545 189.911C145.09 204.402 139.603 219.502 125.788 239.735L130.008 242.617ZM115.792 200.315C120.476 205.441 123.159 210.176 124.555 216.207C125.977 222.354 126.097 229.989 125.349 241.003L130.447 241.349C131.201 230.247 131.135 221.978 129.533 215.056C127.905 208.018 124.728 202.519 119.564 196.868L115.792 200.315ZM125.382 140.233L115.161 198.148L120.194 199.036L130.414 141.121L125.382 140.233ZM73.2055 4.42522C75.1856 6.59607 77.1208 8.69452 79.0046 10.7372L82.7612 7.27293C80.876 5.22877 78.9502 3.14041 76.981 0.981516L73.2055 4.42522ZM79.0046 10.7372C93.2176 26.1494 104.491 38.4037 112.413 56.8357C120.339 75.2802 124.985 100.122 125.343 140.699L130.453 140.654C130.093 99.7634 125.416 74.1512 117.108 54.818C108.794 35.4722 96.9186 22.6248 82.7612 7.27293L79.0046 10.7372ZM115.24 197.826C112.655 206.059 110.525 211.341 108.001 214.715C105.641 217.871 102.903 219.401 98.6424 219.901L99.2386 224.977C104.771 224.327 108.823 222.148 112.093 217.776C115.2 213.622 117.541 207.555 120.115 199.357L115.24 197.826ZM117.678 196.037H69.9831V201.147H117.678V196.037ZM73.2055 0.981513C71.3996 2.9614 69.6317 4.88198 67.8995 6.76386L71.6593 10.2247C73.3904 8.34402 75.166 6.41504 76.981 4.42523L73.2055 0.981513ZM67.8995 6.76386C53.632 22.2639 41.7631 35.1282 33.4839 54.5107C25.2108 73.8786 20.5977 99.5438 20.2354 140.654L25.3454 140.699C25.7049 99.8915 30.2902 74.9963 38.1832 56.5181C46.07 38.0544 57.3348 25.7867 71.6593 10.2247L67.8995 6.76386ZM30.5729 199.357C33.1469 207.555 35.4883 213.622 38.5952 217.776C41.8654 222.148 45.9174 224.327 51.4497 224.977L52.0459 219.901C47.785 219.401 45.0477 217.871 42.6874 214.715C40.1636 211.341 38.033 206.059 35.4484 197.826L30.5729 199.357ZM33.0107 201.147H69.9831V196.037H33.0107V201.147ZM51.7478 224.994H98.9405V219.884H51.7478V224.994Z" fill="white"/>
<circle cx="75.0932" cy="72.5415" r="3.40675" fill="white"/>
<rect x="71.6864" y="79.355" width="6.81351" height="27.254" rx="3.40675" fill="white"/>
<defs>
<linearGradient id="paint0_linear_78_33" x1="80.2031" y1="2.70338" x2="104.05" y2="215.625" gradientUnits="userSpaceOnUse">
<stop/>
<stop offset="1"/>
</linearGradient>
<linearGradient id="paint1_linear_78_33" x1="30.8054" y1="67.876" x2="126.775" y2="215.57" gradientUnits="userSpaceOnUse">
<stop stop-color="white"/>
<stop offset="1" stop-color="white"/>
</linearGradient>
</defs>
</svg>
